<?xml version="1.0" encoding="UTF-8"?>
<svg version="1.1" xmlns="http://www.w3.org/2000/svg" width="512" height="512">
<path d="M0 0 C0.79647949 0.38526855 1.59295898 0.77053711 2.41357422 1.16748047 C24.81002753 12.13055578 43.9816398 26.88788868 62 44 C62.82757813 44.78503906 63.65515625 45.57007812 64.5078125 46.37890625 C106.9685617 87.73005399 130.23101425 148.42030708 131.28540039 207.05566406 C131.59882474 248.33732105 121.93795584 286.42876284 103 323 C102.62875 323.71897461 102.2575 324.43794922 101.875 325.17871094 C74.12278653 378.10846963 23.08672214 417.49108893 -33.35644531 435.43798828 C-93.69706641 453.85207444 -159.00775803 448.49453111 -215.05615234 418.93432617 C-235.27046624 407.87020872 -253.40007319 393.92306944 -270 378 C-271.23556641 376.82630859 -271.23556641 376.82630859 -272.49609375 375.62890625 C-315.0977993 334.20853049 -338.2119083 273.24624342 -339.35351562 214.52685547 C-339.60381785 173.43747055 -329.84205873 135.38604949 -311 99 C-310.62875 98.28102539 -310.2575 97.56205078 -309.875 96.82128906 C-295.86947514 70.10958003 -274.60942399 45.6175378 -251 27 C-249.989375 26.18402344 -248.97875 25.36804688 -247.9375 24.52734375 C-240.05155229 18.22762182 -231.81768276 12.90041285 -223 8 C-222.16178711 7.53303711 -221.32357422 7.06607422 -220.45996094 6.58496094 C-199.17553041 -5.15474472 -177.68298678 -13.54321825 -154 -19 C-153.2997168 -19.16725586 -152.59943359 -19.33451172 -151.87792969 -19.50683594 C-101.16004552 -31.52100615 -46.35553466 -22.54256947 0 0 Z " fill="#FEFEFE" transform="translate(360,45)"/>
<path d="M0 0 C19.8281058 16.94753396 32.62414399 39.80974347 39.40625 64.8359375 C39.61338623 65.59156982 39.82052246 66.34720215 40.03393555 67.12573242 C42.97489852 78.58346637 42.7350267 90.28871548 42.70727539 102.03198242 C42.70699282 103.71831256 42.70715262 105.40464283 42.7077179 107.0909729 C42.70800313 111.63770811 42.70215085 116.18441659 42.69514394 120.73114562 C42.68886464 125.49437176 42.68830299 130.25759861 42.68711853 135.02082825 C42.68401866 144.02674827 42.67582347 153.03265605 42.66576904 162.0385707 C42.65456605 172.29739556 42.64908693 182.55622102 42.64407361 192.81505048 C42.63363966 213.90535449 42.61531099 234.99564173 42.59375 256.0859375 C19.82375 256.0859375 -2.94625 256.0859375 -26.40625 256.0859375 C-26.4155957 251.00944824 -26.42494141 245.93295898 -26.43457031 240.70263672 C-26.46837743 223.90687266 -26.52374779 207.11123041 -26.59015274 190.31556511 C-26.62987961 180.13501615 -26.66230429 169.95454378 -26.67724609 159.77392578 C-26.69029562 150.8954554 -26.71734414 142.017154 -26.76086307 133.13877881 C-26.78340388 128.44229128 -26.79916513 123.74601159 -26.79813385 119.04946518 C-26.79738285 114.61868132 -26.81550843 110.18835561 -26.84741783 105.75769043 C-26.85585779 104.14135965 -26.85770745 102.52497711 -26.85205269 100.90863419 C-26.80557209 85.56564536 -29.66093065 73.01043601 -38.40625 60.0859375 C-38.84453125 59.43109375 -39.2828125 58.77625 -39.734375 58.1015625 C-47.6490066 47.70764871 -61.75610835 40.37594635 -74.40625 38.0859375 C-92.61294321 36.39217116 -107.56580766 38.80249007 -122.40625 50.0859375 C-133.83917181 59.599906 -141.46757143 73.37212762 -143.40625 88.0859375 C-143.70437324 93.6050686 -143.71794879 99.11787391 -143.72509766 104.64306641 C-143.73441034 106.29969769 -143.74458098 107.95632434 -143.75553894 109.61294556 C-143.78270198 114.08327541 -143.79794747 118.55357399 -143.81096697 123.02396441 C-143.8266578 127.70582167 -143.85342888 132.38761563 -143.8789978 137.06942749 C-143.9256806 145.92306236 -143.96247536 154.77670928 -143.99567068 163.63040388 C-144.03396647 173.71512644 -144.08335699 183.79978528 -144.13365483 193.88445401 C-144.23681846 214.61824052 -144.32466493 235.35205408 -144.40625 256.0859375 C-166.84625 256.0859375 -189.28625 256.0859375 -212.40625 256.0859375 C-212.40625 163.6859375 -212.40625 71.2859375 -212.40625 -23.9140625 C-189.96625 -23.9140625 -167.52625 -23.9140625 -144.40625 -23.9140625 C-144.40625 -21.9340625 -144.40625 -19.9540625 -144.40625 -17.9140625 C-143.29830078 -18.49414062 -143.29830078 -18.49414062 -142.16796875 -19.0859375 C-94.80898774 -43.39728226 -39.86540793 -33.54788588 0 0 Z " fill="#313C4E" transform="translate(339.40625,139.9140625)"/>
</svg>
